<?xml version="1.0" standalone="no"?>
<!DOCTYPE svg PUBLIC "-//W3C//DTD SVG 20010904//EN"
 "http://www.w3.org/TR/2001/REC-SVG-20010904/DTD/svg10.dtd">
<svg version="1.0" xmlns="http://www.w3.org/2000/svg"
 width="96.000000pt" height="96.000000pt" viewBox="0 0 96.000000 96.000000"
 preserveAspectRatio="xMidYMid meet">
<metadata>
Created by potrace 1.11, written by Peter Selinger 2001-2013
</metadata>
<g transform="translate(0.000000,96.000000) scale(0.100000,-0.100000)"
fill="#000000" stroke="none">
<path d="M154 771 c-17 -4 -48 -16 -70 -27 l-39 -19 -3 -295 c-1 -162 0 -300
2 -307 4 -9 20 -7 63 8 114 39 264 34 339 -12 30 -18 31 -18 95 8 86 35 208
40 294 12 33 -10 66 -19 73 -19 10 0 12 64 10 303 l-3 302 -50 25 c-44 21 -63
24 -165 24 -103 0 -120 -2 -167 -25 l-53 -26 -51 24 c-41 20 -71 26 -148 29
-53 2 -110 0 -127 -5z m669 -86 c15 -7 17 -27 17 -235 l0 -228 -32 6 c-18 4
-71 7 -118 6 -66 -1 -99 -7 -147 -26 l-63 -26 0 230 0 229 45 20 c25 11 64 24
88 29 45 10 181 6 210 -5z"/>
</g>
</svg>
